<mxfile host="app.diagrams.net" modified="2020-11-13T12:13:45.770Z" agent="5.0 (Windows)" etag="L98DNpa2C9z-3-3tEM-k" version="13.9.7" type="github">
  <diagram id="_rWFawhrcu3u0DFE2K7U" name="Page-1">
    <mxGraphModel dx="1021" dy="736" grid="1" gridSize="10" guides="1" tooltips="1" connect="1" arrows="1" fold="1" page="1" pageScale="1" pageWidth="827" pageHeight="1169" math="0" shadow="0">
      <root>
        <mxCell id="0" />
        <mxCell id="1" parent="0" />
        <mxCell id="_0wFQRXJGNYl2RdbM0k1-1" value="&lt;h1&gt;室内温度智能化监控与调节项目&lt;/h1&gt;&lt;p&gt;采集温度部分：温度传感器（超声波模块）&lt;/p&gt;&lt;p&gt;温度控制部分：红外发射器&lt;/p&gt;&lt;p&gt;数据展示部分：显示屏QT程序、安卓应用程序、web网页&lt;/p&gt;&lt;p&gt;树莓派部分：HopeEdge OS、驱动部分、逻辑控制程序、其它程序&lt;/p&gt;&lt;p&gt;通信部分：IIC、WIFI、红外&lt;br&gt;&lt;/p&gt;" style="text;html=1;strokeColor=none;fillColor=none;spacing=5;spacingTop=-20;whiteSpace=wrap;overflow=hidden;rounded=0;" parent="1" vertex="1">
          <mxGeometry x="20" y="30" width="200" height="270" as="geometry" />
        </mxCell>
        <mxCell id="M8iE7umPJcfiMCRqgvI0-1" value="&lt;font style=&quot;font-size: 30px&quot;&gt;树莓派&lt;/font&gt;" style="rounded=0;whiteSpace=wrap;html=1;fontSize=24;fillColor=none;shadow=1;" parent="1" vertex="1">
          <mxGeometry x="269.88" y="460" width="280.12" height="160" as="geometry" />
        </mxCell>
        <mxCell id="M8iE7umPJcfiMCRqgvI0-10" value="&lt;font style=&quot;font-size: 18px&quot;&gt;拓展板&lt;/font&gt;" style="rounded=0;whiteSpace=wrap;html=1;fontSize=24;" parent="1" vertex="1">
          <mxGeometry x="238.91" y="360" width="332" height="40" as="geometry" />
        </mxCell>
        <mxCell id="M8iE7umPJcfiMCRqgvI0-16" value="&lt;font style=&quot;font-size: 18px&quot;&gt;温度传感器&lt;/font&gt;" style="rounded=0;whiteSpace=wrap;html=1;fontSize=24;" parent="1" vertex="1">
          <mxGeometry x="293" y="217.5" width="107.44" height="60" as="geometry" />
        </mxCell>
        <mxCell id="M8iE7umPJcfiMCRqgvI0-19" value="" style="shape=partialRectangle;whiteSpace=wrap;html=1;left=0;right=0;fillColor=none;fontSize=24;rotation=90;" parent="1" vertex="1">
          <mxGeometry x="305.69" y="312.25" width="77.5" height="10" as="geometry" />
        </mxCell>
        <mxCell id="M8iE7umPJcfiMCRqgvI0-21" value="&lt;font style=&quot;font-size: 16px&quot;&gt;IIC&lt;/font&gt;" style="text;html=1;strokeColor=none;fillColor=none;align=center;verticalAlign=middle;whiteSpace=wrap;rounded=0;fontSize=24;" parent="1" vertex="1">
          <mxGeometry x="190" y="303.25" width="40" height="28" as="geometry" />
        </mxCell>
        <mxCell id="M8iE7umPJcfiMCRqgvI0-39" value="" style="group" parent="1" vertex="1" connectable="0">
          <mxGeometry x="511.21500000000003" y="699.9950000000001" width="98.815" height="148.3699999999999" as="geometry" />
        </mxCell>
        <mxCell id="M8iE7umPJcfiMCRqgvI0-30" value="" style="rounded=1;whiteSpace=wrap;html=1;fontSize=12;rotation=90;" parent="M8iE7umPJcfiMCRqgvI0-39" vertex="1">
          <mxGeometry x="-29.185000000000002" y="29.184999999999945" width="148.37" height="90" as="geometry" />
        </mxCell>
        <mxCell id="M8iE7umPJcfiMCRqgvI0-32" value="实时温度" style="text;html=1;strokeColor=#d6b656;fillColor=#fff2cc;align=center;verticalAlign=middle;whiteSpace=wrap;rounded=0;fontSize=12;" parent="M8iE7umPJcfiMCRqgvI0-39" vertex="1">
          <mxGeometry x="13.5" y="20" width="63" height="26.18" as="geometry" />
        </mxCell>
        <mxCell id="M8iE7umPJcfiMCRqgvI0-33" value="&lt;div&gt;升温&lt;/div&gt;&lt;div&gt;降温&lt;br&gt;&lt;/div&gt;" style="text;html=1;strokeColor=#666666;fillColor=#f5f5f5;align=center;verticalAlign=middle;whiteSpace=wrap;rounded=0;fontSize=12;fontColor=#333333;" parent="M8iE7umPJcfiMCRqgvI0-39" vertex="1">
          <mxGeometry x="20" y="97.18" width="50" height="37" as="geometry" />
        </mxCell>
        <mxCell id="M8iE7umPJcfiMCRqgvI0-34" value="" style="endArrow=none;html=1;fontSize=12;" parent="M8iE7umPJcfiMCRqgvI0-39" edge="1">
          <mxGeometry width="50" height="50" relative="1" as="geometry">
            <mxPoint x="36.36500000000001" y="144.18499999999995" as="sourcePoint" />
            <mxPoint x="56.36500000000001" y="144.18499999999995" as="targetPoint" />
          </mxGeometry>
        </mxCell>
        <mxCell id="M8iE7umPJcfiMCRqgvI0-35" value="" style="ellipse;whiteSpace=wrap;html=1;aspect=fixed;fontSize=12;fillColor=#1A1A1A;" parent="M8iE7umPJcfiMCRqgvI0-39" vertex="1">
          <mxGeometry x="7.12" y="6.18" width="3.82" height="3.82" as="geometry" />
        </mxCell>
        <mxCell id="OfTFiCTdXWqxiQDk5H3R-7" value="" style="shape=image;html=1;verticalAlign=top;verticalLabelPosition=bottom;labelBackgroundColor=#ffffff;imageAspect=0;aspect=fixed;image=https://cdn4.iconfinder.com/data/icons/graphic-design-71/32/Graphic_Design_curve_editor-128.png;rounded=0;" parent="M8iE7umPJcfiMCRqgvI0-39" vertex="1">
          <mxGeometry x="24.36" y="53.54" width="41.28" height="41.28" as="geometry" />
        </mxCell>
        <mxCell id="M8iE7umPJcfiMCRqgvI0-43" value="" style="group;fontSize=14;" parent="1" vertex="1" connectable="0">
          <mxGeometry x="70" y="710" width="330" height="120" as="geometry" />
        </mxCell>
        <mxCell id="M8iE7umPJcfiMCRqgvI0-40" value="" style="shape=process;whiteSpace=wrap;html=1;backgroundOutline=1;fillColor=none;fontSize=12;" parent="M8iE7umPJcfiMCRqgvI0-43" vertex="1">
          <mxGeometry width="330" height="120" as="geometry" />
        </mxCell>
        <mxCell id="M8iE7umPJcfiMCRqgvI0-41" value="显示屏-QT程序" style="text;html=1;strokeColor=none;fillColor=none;align=center;verticalAlign=middle;whiteSpace=wrap;rounded=0;fontSize=12;" parent="M8iE7umPJcfiMCRqgvI0-43" vertex="1">
          <mxGeometry x="33" y="2.86" width="117" height="22.86" as="geometry" />
        </mxCell>
        <mxCell id="OfTFiCTdXWqxiQDk5H3R-8" value="" style="shape=image;html=1;verticalAlign=top;verticalLabelPosition=bottom;labelBackgroundColor=#ffffff;imageAspect=0;aspect=fixed;image=https://cdn1.iconfinder.com/data/icons/Momentum_MatteEntireSet/32/curve-chart.png;rounded=0;" parent="M8iE7umPJcfiMCRqgvI0-43" vertex="1">
          <mxGeometry x="54.29" y="28.509999999999998" width="74.42" height="74.42" as="geometry" />
        </mxCell>
        <mxCell id="OfTFiCTdXWqxiQDk5H3R-9" value="升温" style="labelPosition=center;verticalLabelPosition=middle;align=center;html=1;shape=mxgraph.basic.shaded_button;dx=10;fillColor=#E6E6E6;strokeColor=none;rounded=0;" parent="M8iE7umPJcfiMCRqgvI0-43" vertex="1">
          <mxGeometry x="160" y="35.72" width="50" height="60" as="geometry" />
        </mxCell>
        <mxCell id="OfTFiCTdXWqxiQDk5H3R-10" value="降温" style="labelPosition=center;verticalLabelPosition=middle;align=center;html=1;shape=mxgraph.basic.shaded_button;dx=10;fillColor=#E6E6E6;strokeColor=none;rounded=0;" parent="M8iE7umPJcfiMCRqgvI0-43" vertex="1">
          <mxGeometry x="230" y="35.72000000000003" width="50" height="60" as="geometry" />
        </mxCell>
        <mxCell id="M8iE7umPJcfiMCRqgvI0-44" value="" style="shape=image;html=1;verticalAlign=top;verticalLabelPosition=bottom;labelBackgroundColor=#ffffff;imageAspect=0;aspect=fixed;image=https://cdn3.iconfinder.com/data/icons/logos-and-brands-adobe/512/272_Raspberry_Pi-128.png;fillColor=none;fontSize=12;" parent="1" vertex="1">
          <mxGeometry x="267.88" y="465" width="72" height="72" as="geometry" />
        </mxCell>
        <mxCell id="M8iE7umPJcfiMCRqgvI0-45" value="" style="rounded=0;whiteSpace=wrap;html=1;shadow=0;fontSize=12;rotation=90;strokeColor=#999999;fillColor=#999999;" parent="1" vertex="1">
          <mxGeometry x="374.85" y="425.09" width="60.12" height="9.94" as="geometry" />
        </mxCell>
        <mxCell id="M8iE7umPJcfiMCRqgvI0-46" value="杜邦线&amp;nbsp;&amp;nbsp; &amp;nbsp;&amp;nbsp; &amp;nbsp; GPIO" style="text;html=1;strokeColor=none;fillColor=none;align=center;verticalAlign=middle;whiteSpace=wrap;rounded=0;shadow=0;fontSize=14;" parent="1" vertex="1">
          <mxGeometry x="348" y="420.06" width="110" height="20" as="geometry" />
        </mxCell>
        <mxCell id="M8iE7umPJcfiMCRqgvI0-48" value="&lt;font style=&quot;font-size: 18px&quot;&gt;红外发射器&lt;/font&gt;" style="rounded=0;whiteSpace=wrap;html=1;fontSize=24;" parent="1" vertex="1">
          <mxGeometry x="411.56" y="217.5" width="107.44" height="60" as="geometry" />
        </mxCell>
        <mxCell id="M8iE7umPJcfiMCRqgvI0-50" value="" style="shape=partialRectangle;whiteSpace=wrap;html=1;left=0;right=0;fillColor=none;fontSize=24;rotation=90;" parent="1" vertex="1">
          <mxGeometry x="421.85" y="312.25" width="77.5" height="10" as="geometry" />
        </mxCell>
        <mxCell id="M8iE7umPJcfiMCRqgvI0-54" value="" style="shape=image;html=1;verticalAlign=top;verticalLabelPosition=bottom;labelBackgroundColor=#ffffff;imageAspect=0;aspect=fixed;image=https://cdn2.iconfinder.com/data/icons/kitchen-appliances-computers-and-electronics/32/Appliances-19-128.png;shadow=0;strokeColor=#999999;fillColor=#999999;fontSize=12;" parent="1" vertex="1">
          <mxGeometry x="425.28000000000003" y="30" width="80" height="80" as="geometry" />
        </mxCell>
        <mxCell id="M8iE7umPJcfiMCRqgvI0-56" value="" style="endArrow=none;dashed=1;html=1;dashPattern=1 3;strokeWidth=2;fontSize=12;" parent="1" source="ec5GVnII-nx4smP0i5xM-7" target="M8iE7umPJcfiMCRqgvI0-54" edge="1">
          <mxGeometry width="50" height="50" relative="1" as="geometry">
            <mxPoint x="427" y="170" as="sourcePoint" />
            <mxPoint x="477" y="120" as="targetPoint" />
          </mxGeometry>
        </mxCell>
        <mxCell id="M8iE7umPJcfiMCRqgvI0-58" value="&lt;font style=&quot;font-size: 16px&quot;&gt;红外&lt;/font&gt;" style="text;html=1;strokeColor=none;fillColor=none;align=center;verticalAlign=middle;whiteSpace=wrap;rounded=0;fontSize=24;" parent="1" vertex="1">
          <mxGeometry x="465.28" y="140" width="51.72" height="28" as="geometry" />
        </mxCell>
        <mxCell id="M8iE7umPJcfiMCRqgvI0-62" value="" style="pointerEvents=1;shadow=0;dashed=0;html=1;strokeColor=none;fillColor=#434445;aspect=fixed;labelPosition=center;verticalLabelPosition=bottom;verticalAlign=top;align=center;outlineConnect=0;shape=mxgraph.vvd.wi_fi;fontSize=12;" parent="1" vertex="1">
          <mxGeometry x="570.64" y="500" width="51.92" height="51.92" as="geometry" />
        </mxCell>
        <mxCell id="M8iE7umPJcfiMCRqgvI0-65" value="&lt;font style=&quot;font-size: 18px&quot;&gt;WIFI&lt;/font&gt;" style="text;html=1;strokeColor=none;fillColor=none;align=center;verticalAlign=middle;whiteSpace=wrap;rounded=0;shadow=0;fontSize=12;" parent="1" vertex="1">
          <mxGeometry x="561.5999999999999" y="537" width="70" height="57.5" as="geometry" />
        </mxCell>
        <mxCell id="M8iE7umPJcfiMCRqgvI0-69" value="" style="group" parent="1" vertex="1" connectable="0">
          <mxGeometry x="630" y="500" width="160" height="60" as="geometry" />
        </mxCell>
        <mxCell id="M8iE7umPJcfiMCRqgvI0-67" value="&lt;font style=&quot;font-size: 18px&quot;&gt;Mysql数据库&lt;/font&gt;" style="rounded=0;whiteSpace=wrap;html=1;shadow=0;strokeColor=#999999;fontSize=12;fillColor=none;" parent="M8iE7umPJcfiMCRqgvI0-69" vertex="1">
          <mxGeometry width="160" height="60" as="geometry" />
        </mxCell>
        <mxCell id="M8iE7umPJcfiMCRqgvI0-68" value="云服务器" style="text;html=1;strokeColor=none;fillColor=none;align=center;verticalAlign=middle;whiteSpace=wrap;rounded=0;shadow=0;fontSize=12;" parent="M8iE7umPJcfiMCRqgvI0-69" vertex="1">
          <mxGeometry width="66.01" height="20" as="geometry" />
        </mxCell>
        <mxCell id="M8iE7umPJcfiMCRqgvI0-75" value="" style="endArrow=none;html=1;fontSize=24;exitX=0.365;exitY=-0.009;exitDx=0;exitDy=0;exitPerimeter=0;entryX=0.112;entryY=1.019;entryDx=0;entryDy=0;entryPerimeter=0;" parent="1" source="M8iE7umPJcfiMCRqgvI0-40" target="M8iE7umPJcfiMCRqgvI0-1" edge="1">
          <mxGeometry width="50" height="50" relative="1" as="geometry">
            <mxPoint x="100" y="680" as="sourcePoint" />
            <mxPoint x="290" y="630" as="targetPoint" />
            <Array as="points" />
          </mxGeometry>
        </mxCell>
        <mxCell id="M8iE7umPJcfiMCRqgvI0-76" value="" style="endArrow=none;html=1;fontSize=24;exitX=0.5;exitY=0;exitDx=0;exitDy=0;entryX=0.25;entryY=1;entryDx=0;entryDy=0;" parent="1" source="M8iE7umPJcfiMCRqgvI0-40" edge="1" target="M8iE7umPJcfiMCRqgvI0-1">
          <mxGeometry width="50" height="50" relative="1" as="geometry">
            <mxPoint x="195.42000000000004" y="710.0000000000001" as="sourcePoint" />
            <mxPoint x="324.7234400000002" y="624.12" as="targetPoint" />
            <Array as="points" />
          </mxGeometry>
        </mxCell>
        <mxCell id="M8iE7umPJcfiMCRqgvI0-79" value="" style="endArrow=none;html=1;fontSize=24;entryX=0.75;entryY=1;entryDx=0;entryDy=0;exitX=0.5;exitY=0;exitDx=0;exitDy=0;" parent="1" source="M8iE7umPJcfiMCRqgvI0-2" target="M8iE7umPJcfiMCRqgvI0-67" edge="1">
          <mxGeometry width="50" height="50" relative="1" as="geometry">
            <mxPoint x="70" y="920" as="sourcePoint" />
            <mxPoint x="120" y="870" as="targetPoint" />
          </mxGeometry>
        </mxCell>
        <mxCell id="M8iE7umPJcfiMCRqgvI0-80" value="" style="endArrow=none;html=1;fontSize=24;exitX=0.25;exitY=0;exitDx=0;exitDy=0;entryX=0.174;entryY=1.061;entryDx=0;entryDy=0;entryPerimeter=0;" parent="1" source="M8iE7umPJcfiMCRqgvI0-30" target="M8iE7umPJcfiMCRqgvI0-67" edge="1">
          <mxGeometry width="50" height="50" relative="1" as="geometry">
            <mxPoint x="540" y="700" as="sourcePoint" />
            <mxPoint x="690" y="570" as="targetPoint" />
          </mxGeometry>
        </mxCell>
        <mxCell id="M8iE7umPJcfiMCRqgvI0-81" value="&lt;div&gt;数据采集程序&lt;/div&gt;&lt;div&gt;控制程序&lt;br&gt;&lt;/div&gt;&lt;div&gt;驱动开发&lt;/div&gt;&lt;div&gt;显示程序&lt;/div&gt;&lt;div&gt;WIFI相关程序&lt;br&gt;&lt;/div&gt;&lt;div&gt;&lt;br&gt;&lt;/div&gt;" style="text;html=1;strokeColor=none;fillColor=none;align=center;verticalAlign=middle;whiteSpace=wrap;rounded=0;shadow=0;fontSize=24;" parent="1" vertex="1">
          <mxGeometry x="40" y="450" width="190" height="210" as="geometry" />
        </mxCell>
        <mxCell id="OfTFiCTdXWqxiQDk5H3R-4" value="" style="endArrow=none;dashed=1;html=1;" parent="1" target="M8iE7umPJcfiMCRqgvI0-57" edge="1">
          <mxGeometry width="50" height="50" relative="1" as="geometry">
            <mxPoint x="346.98033898305084" y="217.5" as="sourcePoint" />
            <mxPoint x="327" y="100" as="targetPoint" />
          </mxGeometry>
        </mxCell>
        <mxCell id="OfTFiCTdXWqxiQDk5H3R-5" value="" style="group" parent="1" vertex="1" connectable="0">
          <mxGeometry x="321.72" y="100" width="50" height="125" as="geometry" />
        </mxCell>
        <mxCell id="OfTFiCTdXWqxiQDk5H3R-1" value="" style="endArrow=none;dashed=1;html=1;" parent="OfTFiCTdXWqxiQDk5H3R-5" source="M8iE7umPJcfiMCRqgvI0-16" edge="1">
          <mxGeometry width="50" height="50" relative="1" as="geometry">
            <mxPoint x="-4.720000000000027" y="140" as="sourcePoint" />
            <mxPoint x="26.279999999999973" as="targetPoint" />
          </mxGeometry>
        </mxCell>
        <mxCell id="OfTFiCTdXWqxiQDk5H3R-2" value="" style="endArrow=none;dashed=1;html=1;" parent="OfTFiCTdXWqxiQDk5H3R-5" source="M8iE7umPJcfiMCRqgvI0-57" edge="1">
          <mxGeometry width="50" height="50" relative="1" as="geometry">
            <mxPoint x="25.260338983050815" y="117.5" as="sourcePoint" />
            <mxPoint x="5.279999999999973" as="targetPoint" />
          </mxGeometry>
        </mxCell>
        <mxCell id="OfTFiCTdXWqxiQDk5H3R-3" value="" style="endArrow=none;dashed=1;html=1;" parent="OfTFiCTdXWqxiQDk5H3R-5" edge="1">
          <mxGeometry width="50" height="50" relative="1" as="geometry">
            <mxPoint x="25.279999999999973" y="120" as="sourcePoint" />
            <mxPoint x="45.27999999999997" as="targetPoint" />
          </mxGeometry>
        </mxCell>
        <mxCell id="M8iE7umPJcfiMCRqgvI0-57" value="" style="verticalLabelPosition=bottom;html=1;verticalAlign=top;align=center;points=[[0,0.5,0],[0.125,0.25,0],[0.25,0,0],[0.5,0,0],[0.75,0,0],[0.875,0.25,0],[1,0.5,0],[0.875,0.75,0],[0.75,1,0],[0.5,1,0],[0.125,0.75,0]];pointerEvents=1;shape=mxgraph.cisco_safe.compositeIcon;bgIcon=mxgraph.cisco_safe.design.blank_device;resIcon=mxgraph.cisco_safe.design.sensor;shadow=0;fontSize=12;" parent="OfTFiCTdXWqxiQDk5H3R-5" vertex="1">
          <mxGeometry y="80" width="50" height="45" as="geometry" />
        </mxCell>
        <mxCell id="OfTFiCTdXWqxiQDk5H3R-15" value="" style="group" parent="1" vertex="1" connectable="0">
          <mxGeometry x="650" y="710" width="200" height="100" as="geometry" />
        </mxCell>
        <mxCell id="M8iE7umPJcfiMCRqgvI0-2" value="" style="rounded=1;whiteSpace=wrap;html=1;" parent="OfTFiCTdXWqxiQDk5H3R-15" vertex="1">
          <mxGeometry width="200" height="100" as="geometry" />
        </mxCell>
        <mxCell id="OfTFiCTdXWqxiQDk5H3R-12" value="" style="shape=image;html=1;verticalAlign=top;verticalLabelPosition=bottom;labelBackgroundColor=#ffffff;imageAspect=0;aspect=fixed;image=https://cdn2.iconfinder.com/data/icons/competitive-strategy-and-corporate-training/512/704_Arrow_chart_curve_experience_goal-128.png;rounded=0;" parent="OfTFiCTdXWqxiQDk5H3R-15" vertex="1">
          <mxGeometry x="10" y="16" width="74" height="74" as="geometry" />
        </mxCell>
        <mxCell id="M8iE7umPJcfiMCRqgvI0-4" value="&lt;div style=&quot;font-size: 12px&quot;&gt;&lt;font style=&quot;font-size: 12px&quot;&gt;控制指令区域&lt;/font&gt;&lt;/div&gt;&lt;div&gt;&lt;font style=&quot;font-size: 12px&quot;&gt;升温降温&lt;br&gt;&lt;/font&gt;&lt;/div&gt;" style="text;html=1;strokeColor=#6c8ebf;fillColor=#dae8fc;align=center;verticalAlign=middle;whiteSpace=wrap;rounded=0;fontSize=24;" parent="OfTFiCTdXWqxiQDk5H3R-15" vertex="1">
          <mxGeometry x="110" y="26" width="80" height="54" as="geometry" />
        </mxCell>
        <mxCell id="M8iE7umPJcfiMCRqgvI0-28" value="www.temp.com" style="text;html=1;strokeColor=none;fillColor=none;align=center;verticalAlign=middle;whiteSpace=wrap;rounded=0;fontSize=12;" parent="OfTFiCTdXWqxiQDk5H3R-15" vertex="1">
          <mxGeometry x="20" y="2" width="98" height="20" as="geometry" />
        </mxCell>
        <mxCell id="M8iE7umPJcfiMCRqgvI0-37" value="" style="rounded=0;whiteSpace=wrap;html=1;fillColor=none;fontSize=12;" parent="OfTFiCTdXWqxiQDk5H3R-15" vertex="1">
          <mxGeometry x="170" y="5" width="10" height="10" as="geometry" />
        </mxCell>
        <mxCell id="M8iE7umPJcfiMCRqgvI0-9" value="&lt;font style=&quot;font-size: 12px&quot;&gt;X&lt;/font&gt;" style="text;html=1;strokeColor=none;fillColor=none;align=center;verticalAlign=middle;whiteSpace=wrap;rounded=0;fontSize=24;" parent="OfTFiCTdXWqxiQDk5H3R-15" vertex="1">
          <mxGeometry x="180" y="1" width="20" height="10" as="geometry" />
        </mxCell>
        <mxCell id="OfTFiCTdXWqxiQDk5H3R-16" value="" style="endArrow=none;html=1;" parent="OfTFiCTdXWqxiQDk5H3R-15" edge="1">
          <mxGeometry width="50" height="50" relative="1" as="geometry">
            <mxPoint x="160" y="15" as="sourcePoint" />
            <mxPoint x="160" y="15" as="targetPoint" />
            <Array as="points">
              <mxPoint x="150" y="15" />
            </Array>
          </mxGeometry>
        </mxCell>
        <mxCell id="ec5GVnII-nx4smP0i5xM-4" value="" style="endArrow=none;html=1;entryX=0;entryY=0.75;entryDx=0;entryDy=0;exitX=0.75;exitY=1;exitDx=0;exitDy=0;" edge="1" parent="1" source="M8iE7umPJcfiMCRqgvI0-1" target="M8iE7umPJcfiMCRqgvI0-30">
          <mxGeometry width="50" height="50" relative="1" as="geometry">
            <mxPoint x="440" y="680" as="sourcePoint" />
            <mxPoint x="490" y="630" as="targetPoint" />
          </mxGeometry>
        </mxCell>
        <mxCell id="ec5GVnII-nx4smP0i5xM-5" value="" style="shape=image;html=1;verticalAlign=top;verticalLabelPosition=bottom;labelBackgroundColor=#ffffff;imageAspect=0;aspect=fixed;image=https://cdn1.iconfinder.com/data/icons/web-basic-2/512/719_bluetooth__network__communication__security_-128.png" vertex="1" parent="1">
          <mxGeometry x="470" y="644" width="32" height="32" as="geometry" />
        </mxCell>
        <mxCell id="ec5GVnII-nx4smP0i5xM-7" value="" style="shape=image;html=1;verticalAlign=top;verticalLabelPosition=bottom;labelBackgroundColor=#ffffff;imageAspect=0;aspect=fixed;image=https://cdn0.iconfinder.com/data/icons/electronics-line-style/64/Remote-128.png" vertex="1" parent="1">
          <mxGeometry x="447.28" y="189" width="36" height="36" as="geometry" />
        </mxCell>
        <mxCell id="ec5GVnII-nx4smP0i5xM-8" value="" style="endArrow=none;dashed=1;html=1;dashPattern=1 3;strokeWidth=2;fontSize=12;" edge="1" parent="1" source="M8iE7umPJcfiMCRqgvI0-48" target="ec5GVnII-nx4smP0i5xM-7">
          <mxGeometry width="50" height="50" relative="1" as="geometry">
            <mxPoint x="465.28" y="217.5" as="sourcePoint" />
            <mxPoint x="465.28" y="110" as="targetPoint" />
          </mxGeometry>
        </mxCell>
      </root>
    </mxGraphModel>
  </diagram>
</mxfile>
